<svg width="23" height="23" viewBox="0 0 23 23" fill="none" xmlns="http://www.w3.org/2000/svg">
<rect width="23" height="23" rx="2" fill="#56657F"/>
<path d="M14.8833 11.4451C14.0172 12.2156 12.8674 12.6885 11.6002 12.6885C10.3142 12.6885 9.14547 12.2003 8.27552 11.4069C6.25201 11.9409 5 13.7641 5 15.942V17.0519C5 19.6494 18 19.6494 18 17.0519V15.942C17.9999 13.8214 16.8123 12.0287 14.8833 11.4451V11.4451ZM11.6002 11.899C13.8431 11.899 15.6663 10.133 15.6663 7.95139C15.6663 5.76973 13.8469 4 11.6002 4C9.36102 4 7.53798 5.76978 7.53798 7.95142C7.53798 10.1331 9.36102 11.899 11.6002 11.899V11.899Z" fill="white"/>
</svg>
