<svg width="48" height="48" viewBox="0 0 36 36" fill="none" xmlns="http://www.w3.org/2000/svg">
<path d="M23.3438 18C23.3438 18.4476 23.5215 18.8768 23.838 19.1932C24.1545 19.5097 24.5837 19.6875 25.0312 19.6875C25.4788 19.6875 25.908 19.5097 26.2245 19.1932C26.541 18.8768 26.7188 18.4476 26.7188 18C26.7188 17.5524 26.541 17.1232 26.2245 16.8068C25.908 16.4903 25.4788 16.3125 25.0312 16.3125C24.5837 16.3125 24.1545 16.4903 23.838 16.8068C23.5215 17.1232 23.3438 17.5524 23.3438 18ZM9.28125 18C9.28125 18.4476 9.45904 18.8768 9.77551 19.1932C10.092 19.5097 10.5212 19.6875 10.9688 19.6875C11.4163 19.6875 11.8455 19.5097 12.162 19.1932C12.4785 18.8768 12.6562 18.4476 12.6562 18C12.6562 17.5524 12.4785 17.1232 12.162 16.8068C11.8455 16.4903 11.4163 16.3125 10.9688 16.3125C10.5212 16.3125 10.092 16.4903 9.77551 16.8068C9.45904 17.1232 9.28125 17.5524 9.28125 18Z" fill="black"/>
<path d="M32.5267 11.8969C31.7322 10.009 30.5932 8.31445 29.1412 6.85898C27.6994 5.41194 25.9878 4.26172 24.1033 3.47344C22.1697 2.66133 20.1166 2.25 18.0002 2.25H17.9299C15.7994 2.26055 13.7357 2.68242 11.7951 3.51211C9.92675 4.30847 8.23119 5.46074 6.80292 6.90469C5.36502 8.35664 4.23651 10.0441 3.45604 11.925C2.64745 13.8727 2.23963 15.9434 2.25018 18.0738C2.26211 20.5153 2.83972 22.9208 3.93768 25.1016V30.4453C3.93768 30.8742 4.10806 31.2856 4.41134 31.5888C4.71463 31.8921 5.12596 32.0625 5.55487 32.0625H10.9021C13.0829 33.1605 15.4884 33.7381 17.9299 33.75H18.0037C20.1096 33.75 22.1521 33.3422 24.0752 32.5441C25.9502 31.7653 27.6554 30.6284 29.0955 29.1973C30.5474 27.7594 31.69 26.0789 32.4881 24.2051C33.3178 22.2645 33.7396 20.2008 33.7502 18.0703C33.7607 15.9293 33.3459 13.8516 32.5267 11.8969ZM27.2146 27.2953C24.7502 29.7352 21.4807 31.0781 18.0002 31.0781H17.9404C15.8205 31.0676 13.7146 30.5402 11.8549 29.5488L11.5596 29.3906H6.60956V24.4406L6.45135 24.1453C5.45995 22.2855 4.9326 20.1797 4.92206 18.0598C4.90799 14.5547 6.24745 11.2641 8.70487 8.78555C11.1588 6.30703 14.4389 4.93594 17.9439 4.92188H18.0037C19.7615 4.92188 21.4666 5.26289 23.0732 5.93789C24.6412 6.59531 26.0474 7.54102 27.2568 8.75039C28.4627 9.95625 29.4119 11.366 30.0693 12.934C30.7514 14.5582 31.0924 16.2809 31.0853 18.0598C31.0642 21.5613 29.6896 24.8414 27.2146 27.2953Z" fill="black"/>
<path d="M16.3125 18C16.3125 18.4476 16.4903 18.8768 16.8068 19.1932C17.1232 19.5097 17.5524 19.6875 18 19.6875C18.4476 19.6875 18.8768 19.5097 19.1932 19.1932C19.5097 18.8768 19.6875 18.4476 19.6875 18C19.6875 17.5524 19.5097 17.1232 19.1932 16.8068C18.8768 16.4903 18.4476 16.3125 18 16.3125C17.5524 16.3125 17.1232 16.4903 16.8068 16.8068C16.4903 17.1232 16.3125 17.5524 16.3125 18Z" fill="black"/>
</svg>
