<svg width="29" height="29" viewBox="0 0 29 29" fill="none" xmlns="http://www.w3.org/2000/svg">
<path d="M26.898 4.4543L23.1539 0.713672C22.6969 0.256641 22.0852 0 21.4383 0C20.7914 0 20.1797 0.253125 19.7227 0.713672L15.6902 4.73906C15.2332 5.19609 14.9766 5.81133 14.9766 6.4582C14.9766 7.10859 15.2297 7.7168 15.6902 8.17734L18.8402 11.3309C18.1226 13.0028 17.0916 14.522 15.8027 15.8062C14.5125 17.1035 13.0043 18.1266 11.3309 18.8508L8.18086 15.6973C7.72383 15.2402 7.11211 14.9836 6.46523 14.9836C6.14617 14.9824 5.83007 15.0449 5.53548 15.1675C5.24088 15.29 4.9737 15.4701 4.74961 15.6973L0.713672 19.7227C0.256641 20.1797 0 20.7949 0 21.4418C0 22.0922 0.253125 22.7004 0.713672 23.1609L4.4543 26.9016C5.23477 27.682 6.31055 28.1285 7.41445 28.1285C7.64297 28.1285 7.86445 28.1109 8.08945 28.0723C12.7441 27.3059 17.3637 24.8273 21.0938 21.1008C24.8203 17.3672 27.2953 12.7477 28.0688 8.08945C28.2902 6.76758 27.8473 5.40703 26.898 4.4543ZM25.5762 7.67109C24.8906 11.816 22.6617 15.9504 19.3043 19.3078C15.9469 22.6652 11.816 24.8941 7.67109 25.5797C7.15078 25.6676 6.61641 25.4918 6.23672 25.1156L2.56289 21.4418L6.4582 17.543L10.6699 21.7617L10.7016 21.7934L11.4609 21.5121C13.7634 20.6656 15.8543 19.3285 17.5886 17.5935C19.323 15.8586 20.6593 13.7672 21.5051 11.4645L21.7863 10.7051L17.5395 6.46172L21.4348 2.56289L25.1086 6.23672C25.4883 6.61641 25.6641 7.15078 25.5762 7.67109Z" fill="black"/>
</svg>
