<svg width="30" height="32" viewBox="0 0 30 32" fill="none" xmlns="http://www.w3.org/2000/svg">
<path d="M21.1008 15.4037C21.1008 14.3385 20.8301 13.333 20.3555 12.4576C19.3078 10.5275 17.2652 9.21621 14.9133 9.21621C11.4961 9.21621 8.7258 11.9865 8.7258 15.4037C8.7258 17.7557 10.0371 19.7982 11.9672 20.8459C12.8426 21.3205 13.8445 21.5912 14.9133 21.5912C18.3305 21.5912 21.1008 18.8209 21.1008 15.4037ZM10.9758 15.4037C10.9758 14.3525 11.3871 13.3646 12.1289 12.6193C12.8742 11.874 13.8621 11.4662 14.9133 11.4662C15.9645 11.4662 16.9524 11.874 17.6977 12.6193C18.0639 12.9845 18.3543 13.4185 18.5522 13.8964C18.7501 14.3742 18.8516 14.8865 18.8508 15.4037C18.8508 16.4549 18.4395 17.4428 17.6977 18.1881C17.3325 18.5543 16.8985 18.8448 16.4206 19.0427C15.9428 19.2406 15.4305 19.342 14.9133 19.3412C13.8621 19.3412 12.8742 18.9299 12.1289 18.1881C11.7627 17.8229 11.4722 17.3889 11.2744 16.911C11.0765 16.4332 10.975 15.9209 10.9758 15.4037Z" fill="black"/>
<path d="M17.7996 31.2311C18.0246 31.1903 18.2319 31.082 18.3939 30.9207C18.5559 30.7593 18.665 30.5524 18.7066 30.3276L19.2586 27.3393C20.5307 26.8624 21.7151 26.1782 22.7637 25.3143L25.6219 26.3303C25.8372 26.4064 26.0705 26.4153 26.2909 26.3556C26.5113 26.296 26.7084 26.1706 26.8559 25.9963L26.9191 25.9225C28.1426 24.4776 29.0848 22.8463 29.7211 21.0744L29.7527 20.983C29.8125 20.8213 29.8301 20.6526 29.8125 20.4873C29.7809 20.2096 29.6473 19.9459 29.4258 19.7526L27.1301 17.7873L27.1231 17.7838C27.232 17.1158 27.2883 16.4338 27.2883 15.7518C27.2883 15.1576 27.2461 14.56 27.1617 13.9764C27.1512 13.899 27.1371 13.8217 27.1266 13.7443C27.1266 13.7373 27.1231 13.7268 27.1231 13.7197L29.4258 11.751C29.6684 11.5436 29.809 11.2447 29.8195 10.9354C29.8231 10.7947 29.802 10.6506 29.7527 10.5135L29.7211 10.4221C29.0872 8.6503 28.1379 7.00783 26.9191 5.57403L26.8559 5.5002C26.708 5.32636 26.511 5.20139 26.2907 5.14177C26.0704 5.08215 25.8372 5.09067 25.6219 5.16622L22.7637 6.18223C21.709 5.31739 20.5348 4.63536 19.2621 4.15723H19.2586L18.7066 1.16895C18.7031 1.15137 18.6996 1.13027 18.6926 1.1127C18.6418 0.90014 18.5304 0.706908 18.3719 0.556493C18.2134 0.406078 18.0145 0.304959 17.7996 0.26543L17.7047 0.247852C15.8731 -0.0826173 13.9465 -0.0826173 12.1148 0.247852L12.0199 0.26543C11.7949 0.3062 11.5876 0.414468 11.4256 0.575852C11.2636 0.737236 11.1545 0.944094 11.1129 1.16895L10.5574 4.17129C9.29493 4.64952 8.11923 5.33119 7.07696 6.18926L4.19766 5.16622C3.98239 5.09007 3.74904 5.08124 3.52862 5.1409C3.30821 5.20056 3.11117 5.32587 2.96368 5.5002L2.9004 5.57403C1.6831 7.00884 0.733985 8.65104 0.0984446 10.4221L0.0668039 10.5135C-0.00645787 10.7178 -0.0192228 10.9389 0.0300397 11.1503C0.0793022 11.3617 0.188501 11.5544 0.344538 11.7053C0.362116 11.7193 0.376179 11.7369 0.393757 11.751L2.72462 13.7408V13.7443C2.61563 14.4053 2.5629 15.0768 2.5629 15.7483C2.5629 16.4233 2.61563 17.0983 2.72462 17.7557L0.393757 19.7455C0.22007 19.8942 0.0957602 20.0923 0.037357 20.3133C-0.0210462 20.5344 -0.0107754 20.768 0.0668039 20.983L0.0984446 21.0744C0.734773 22.8463 1.67696 24.4811 2.9004 25.9225L2.96368 25.9963C3.13594 26.1967 3.36446 26.3268 3.61407 26.3725C3.80391 26.4076 4.0043 26.3971 4.19766 26.3303L7.07696 25.3072C7.08048 25.3108 7.08751 25.3143 7.09102 25.3178C8.13516 26.1721 9.29883 26.8506 10.5574 27.3252L11.1129 30.3276C11.1545 30.5524 11.2636 30.7593 11.4256 30.9207C11.5876 31.082 11.7949 31.1903 12.0199 31.2311L12.1148 31.2487C13.0324 31.4139 13.9711 31.4983 14.9098 31.4983H14.9203C15.8555 31.4983 16.7941 31.4139 17.7047 31.2487L17.7996 31.2311ZM16.4004 28.8932C15.4075 29.0057 14.405 29.0057 13.4121 28.8932L12.7828 25.476L11.4539 24.9662C10.452 24.5865 9.52032 24.0451 8.68712 23.3596L7.58321 22.449L4.29962 23.6162C3.70196 22.8112 3.20274 21.9428 2.80196 21.0287L5.45626 18.7612L5.22774 17.3549C5.14337 16.8311 5.09766 16.2897 5.09766 15.7553C5.09766 15.2174 5.13985 14.6795 5.22774 14.1557L5.45626 12.7494L2.80196 10.4818C3.19923 9.56427 3.70196 8.69942 4.29962 7.89434L7.58321 9.06153L8.68712 8.15098C9.52032 7.46544 10.452 6.92403 11.4539 6.54434L12.7863 6.04161L13.4156 2.62442C14.4035 2.51192 15.4125 2.51192 16.4039 2.62442L17.0332 6.03457L18.3727 6.53731C19.3816 6.917 20.3203 7.4584 21.1606 8.14747L22.2645 9.0545L25.527 7.89786C26.1246 8.70294 26.6238 9.5713 27.0246 10.4854L24.3984 12.7318L24.627 14.1346C24.7148 14.6654 24.7605 15.2104 24.7605 15.7553C24.7605 16.3002 24.7148 16.8451 24.627 17.376L24.3949 18.7858L27.0211 21.0322C26.623 21.9494 26.1204 22.8177 25.5234 23.6197L22.2609 22.4631L21.157 23.3701C20.3168 24.0592 19.3816 24.6006 18.3691 24.9803L17.0297 25.483L16.4004 28.8932Z" fill="black"/>
</svg>
